<mxfile host="app.diagrams.net" agent="Mozilla/5.0 (Windows NT 10.0; Win64; x64; rv:140.0) Gecko/20100101 Firefox/140.0" version="28.0.4">
  <diagram name="Page-1" id="Pth8bWdVVuNSnC3EUmMG">
    <mxGraphModel dx="4665" dy="1968" grid="1" gridSize="10" guides="1" tooltips="1" connect="0" arrows="1" fold="1" page="1" pageScale="1" pageWidth="1100" pageHeight="850" math="0" shadow="0">
      <root>
        <mxCell id="0" />
        <mxCell id="1" parent="0" />
        <mxCell id="CMhYdiwJoUcI2MFZcoHu-18" value="" style="edgeStyle=orthogonalEdgeStyle;rounded=0;orthogonalLoop=1;jettySize=auto;html=1;" edge="1" parent="1" source="CMhYdiwJoUcI2MFZcoHu-3" target="CMhYdiwJoUcI2MFZcoHu-17">
          <mxGeometry relative="1" as="geometry" />
        </mxCell>
        <mxCell id="CMhYdiwJoUcI2MFZcoHu-3" value="&lt;div&gt;&lt;font style=&quot;font-size: 20px;&quot;&gt;&lt;b&gt;&lt;font face=&quot;Georgia&quot;&gt;HA Proxy&lt;/font&gt;&lt;/b&gt;&lt;/font&gt;&lt;/div&gt;" style="rhombus;whiteSpace=wrap;html=1;" vertex="1" parent="1">
          <mxGeometry x="50" y="473" width="160" height="100" as="geometry" />
        </mxCell>
        <mxCell id="CMhYdiwJoUcI2MFZcoHu-53" style="edgeStyle=orthogonalEdgeStyle;rounded=0;orthogonalLoop=1;jettySize=auto;html=1;" edge="1" parent="1" source="CMhYdiwJoUcI2MFZcoHu-7" target="CMhYdiwJoUcI2MFZcoHu-51">
          <mxGeometry relative="1" as="geometry" />
        </mxCell>
        <mxCell id="CMhYdiwJoUcI2MFZcoHu-7" value="&lt;font style=&quot;font-size: 18px;&quot;&gt;MultiAV&lt;/font&gt;" style="rounded=1;whiteSpace=wrap;html=1;" vertex="1" parent="1">
          <mxGeometry x="-275" y="1183" width="120" height="60" as="geometry" />
        </mxCell>
        <mxCell id="CMhYdiwJoUcI2MFZcoHu-8" value="&lt;font style=&quot;font-size: 18px;&quot;&gt;MultiAV&lt;/font&gt;" style="rounded=1;whiteSpace=wrap;html=1;" vertex="1" parent="1">
          <mxGeometry x="-45" y="1183" width="120" height="60" as="geometry" />
        </mxCell>
        <mxCell id="CMhYdiwJoUcI2MFZcoHu-9" value="&lt;font style=&quot;font-size: 18px;&quot;&gt;MultiAV&lt;/font&gt;" style="rounded=1;whiteSpace=wrap;html=1;" vertex="1" parent="1">
          <mxGeometry x="185" y="1183" width="120" height="60" as="geometry" />
        </mxCell>
        <mxCell id="CMhYdiwJoUcI2MFZcoHu-10" value="&lt;font style=&quot;font-size: 18px;&quot;&gt;MultiAV&lt;/font&gt;" style="rounded=1;whiteSpace=wrap;html=1;" vertex="1" parent="1">
          <mxGeometry x="415" y="1183" width="120" height="60" as="geometry" />
        </mxCell>
        <mxCell id="CMhYdiwJoUcI2MFZcoHu-11" value="" style="endArrow=none;html=1;rounded=0;entryX=0.015;entryY=0.5;entryDx=0;entryDy=0;entryPerimeter=0;exitX=0.542;exitY=0;exitDx=0;exitDy=0;exitPerimeter=0;" edge="1" parent="1" source="CMhYdiwJoUcI2MFZcoHu-7" target="CMhYdiwJoUcI2MFZcoHu-24">
          <mxGeometry width="50" height="50" relative="1" as="geometry">
            <mxPoint x="100" y="1423" as="sourcePoint" />
            <mxPoint x="70" y="1081" as="targetPoint" />
            <Array as="points">
              <mxPoint x="-140" y="1093" />
            </Array>
          </mxGeometry>
        </mxCell>
        <mxCell id="CMhYdiwJoUcI2MFZcoHu-12" value="" style="endArrow=none;html=1;rounded=0;exitX=0.514;exitY=0.006;exitDx=0;exitDy=0;exitPerimeter=0;entryX=0.288;entryY=0.787;entryDx=0;entryDy=0;entryPerimeter=0;" edge="1" parent="1" source="CMhYdiwJoUcI2MFZcoHu-8" target="CMhYdiwJoUcI2MFZcoHu-24">
          <mxGeometry width="50" height="50" relative="1" as="geometry">
            <mxPoint x="100" y="1423" as="sourcePoint" />
            <mxPoint x="93.89784546838291" y="1114.9488093200152" as="targetPoint" />
          </mxGeometry>
        </mxCell>
        <mxCell id="CMhYdiwJoUcI2MFZcoHu-13" value="" style="endArrow=none;html=1;rounded=0;entryX=0.458;entryY=0;entryDx=0;entryDy=0;entryPerimeter=0;exitX=0.694;exitY=0.797;exitDx=0;exitDy=0;exitPerimeter=0;" edge="1" parent="1" source="CMhYdiwJoUcI2MFZcoHu-24" target="CMhYdiwJoUcI2MFZcoHu-9">
          <mxGeometry width="50" height="50" relative="1" as="geometry">
            <mxPoint x="166" y="1119" as="sourcePoint" />
            <mxPoint x="267" y="1093" as="targetPoint" />
          </mxGeometry>
        </mxCell>
        <mxCell id="CMhYdiwJoUcI2MFZcoHu-14" value="" style="endArrow=none;html=1;rounded=0;exitX=0.988;exitY=0.497;exitDx=0;exitDy=0;exitPerimeter=0;entryX=0.542;entryY=0;entryDx=0;entryDy=0;entryPerimeter=0;" edge="1" parent="1" source="CMhYdiwJoUcI2MFZcoHu-24" target="CMhYdiwJoUcI2MFZcoHu-10">
          <mxGeometry width="50" height="50" relative="1" as="geometry">
            <mxPoint x="191.44000000000005" y="1083.08" as="sourcePoint" />
            <mxPoint x="470" y="1153" as="targetPoint" />
            <Array as="points">
              <mxPoint x="420" y="1093" />
            </Array>
          </mxGeometry>
        </mxCell>
        <mxCell id="CMhYdiwJoUcI2MFZcoHu-32" style="edgeStyle=orthogonalEdgeStyle;rounded=0;orthogonalLoop=1;jettySize=auto;html=1;entryX=0.671;entryY=-0.005;entryDx=0;entryDy=0;entryPerimeter=0;" edge="1" parent="1" source="CMhYdiwJoUcI2MFZcoHu-15">
          <mxGeometry relative="1" as="geometry">
            <mxPoint x="-292.50999999999976" y="832.6000000000001" as="targetPoint" />
          </mxGeometry>
        </mxCell>
        <mxCell id="CMhYdiwJoUcI2MFZcoHu-15" value="&lt;font style=&quot;font-size: 18px;&quot;&gt;OwnCloud&lt;/font&gt;" style="shape=hexagon;perimeter=hexagonPerimeter2;whiteSpace=wrap;html=1;fixedSize=1;" vertex="1" parent="1">
          <mxGeometry x="-240" y="623" width="120" height="80" as="geometry" />
        </mxCell>
        <mxCell id="CMhYdiwJoUcI2MFZcoHu-39" value="" style="edgeStyle=orthogonalEdgeStyle;rounded=0;orthogonalLoop=1;jettySize=auto;html=1;" edge="1" parent="1" source="CMhYdiwJoUcI2MFZcoHu-16" target="CMhYdiwJoUcI2MFZcoHu-37">
          <mxGeometry relative="1" as="geometry" />
        </mxCell>
        <mxCell id="CMhYdiwJoUcI2MFZcoHu-40" value="" style="edgeStyle=orthogonalEdgeStyle;rounded=0;orthogonalLoop=1;jettySize=auto;html=1;" edge="1" parent="1" source="CMhYdiwJoUcI2MFZcoHu-16" target="CMhYdiwJoUcI2MFZcoHu-37">
          <mxGeometry relative="1" as="geometry" />
        </mxCell>
        <mxCell id="CMhYdiwJoUcI2MFZcoHu-42" value="" style="edgeStyle=orthogonalEdgeStyle;rounded=0;orthogonalLoop=1;jettySize=auto;html=1;entryX=0.667;entryY=-0.002;entryDx=0;entryDy=0;entryPerimeter=0;" edge="1" parent="1" source="CMhYdiwJoUcI2MFZcoHu-16" target="CMhYdiwJoUcI2MFZcoHu-38">
          <mxGeometry relative="1" as="geometry">
            <mxPoint x="580" y="783" as="targetPoint" />
          </mxGeometry>
        </mxCell>
        <mxCell id="CMhYdiwJoUcI2MFZcoHu-16" value="&lt;div align=&quot;center&quot;&gt;&lt;font style=&quot;font-size: 18px;&quot;&gt;&lt;br&gt;&lt;/font&gt;&lt;/div&gt;&lt;div&gt;&lt;div align=&quot;center&quot;&gt;&lt;font size=&quot;3&quot;&gt;OwnCloud&lt;br&gt;&lt;/font&gt;&lt;/div&gt;&lt;font size=&quot;3&quot;&gt;&lt;br&gt;&lt;/font&gt;&lt;/div&gt;" style="shape=hexagon;perimeter=hexagonPerimeter2;whiteSpace=wrap;html=1;fixedSize=1;size=20;align=center;" vertex="1" parent="1">
          <mxGeometry x="380" y="623" width="120" height="80" as="geometry" />
        </mxCell>
        <mxCell id="CMhYdiwJoUcI2MFZcoHu-17" value="&lt;div&gt;&lt;font style=&quot;font-size: 18px;&quot;&gt;&lt;br&gt;&lt;/font&gt;&lt;/div&gt;&lt;div&gt;&lt;div align=&quot;center&quot;&gt;&lt;font size=&quot;3&quot;&gt;OwnCloud&lt;br&gt;&lt;/font&gt;&lt;/div&gt;&lt;font size=&quot;3&quot;&gt;&lt;br&gt;&lt;/font&gt;&lt;/div&gt;" style="shape=hexagon;perimeter=hexagonPerimeter2;whiteSpace=wrap;html=1;fixedSize=1;align=center;" vertex="1" parent="1">
          <mxGeometry x="70" y="633" width="120" height="80" as="geometry" />
        </mxCell>
        <mxCell id="CMhYdiwJoUcI2MFZcoHu-20" value="" style="endArrow=classic;html=1;rounded=0;exitX=0.004;exitY=0.5;exitDx=0;exitDy=0;exitPerimeter=0;entryX=0.522;entryY=0;entryDx=0;entryDy=0;entryPerimeter=0;" edge="1" parent="1" source="CMhYdiwJoUcI2MFZcoHu-3" target="CMhYdiwJoUcI2MFZcoHu-15">
          <mxGeometry width="50" height="50" relative="1" as="geometry">
            <mxPoint x="50" y="823" as="sourcePoint" />
            <mxPoint x="100" y="773" as="targetPoint" />
            <Array as="points">
              <mxPoint x="-100" y="543" />
            </Array>
          </mxGeometry>
        </mxCell>
        <mxCell id="CMhYdiwJoUcI2MFZcoHu-21" value="" style="endArrow=classic;html=1;rounded=0;exitX=0.999;exitY=0.5;exitDx=0;exitDy=0;exitPerimeter=0;entryX=0.5;entryY=0;entryDx=0;entryDy=0;entryPerimeter=0;" edge="1" parent="1" source="CMhYdiwJoUcI2MFZcoHu-3" target="CMhYdiwJoUcI2MFZcoHu-16">
          <mxGeometry width="50" height="50" relative="1" as="geometry">
            <mxPoint x="500" y="513" as="sourcePoint" />
            <mxPoint x="272" y="633" as="targetPoint" />
            <Array as="points">
              <mxPoint x="349" y="533" />
            </Array>
          </mxGeometry>
        </mxCell>
        <mxCell id="CMhYdiwJoUcI2MFZcoHu-23" value="" style="edgeStyle=orthogonalEdgeStyle;rounded=0;orthogonalLoop=1;jettySize=auto;html=1;" edge="1" parent="1" source="CMhYdiwJoUcI2MFZcoHu-22" target="CMhYdiwJoUcI2MFZcoHu-3">
          <mxGeometry relative="1" as="geometry" />
        </mxCell>
        <mxCell id="CMhYdiwJoUcI2MFZcoHu-22" value="&lt;b&gt;&lt;font style=&quot;font-size: 18px;&quot;&gt;WAF&lt;/font&gt;&lt;/b&gt;" style="ellipse;whiteSpace=wrap;html=1;" vertex="1" parent="1">
          <mxGeometry x="70" y="323" width="120" height="80" as="geometry" />
        </mxCell>
        <mxCell id="CMhYdiwJoUcI2MFZcoHu-24" value="&lt;div&gt;&lt;font style=&quot;font-size: 20px;&quot; face=&quot;Georgia&quot;&gt;&lt;b&gt;HA Proxy&lt;/b&gt;&lt;/font&gt;&lt;/div&gt;" style="rhombus;whiteSpace=wrap;html=1;" vertex="1" parent="1">
          <mxGeometry x="50" y="1033" width="160" height="100" as="geometry" />
        </mxCell>
        <mxCell id="CMhYdiwJoUcI2MFZcoHu-26" style="edgeStyle=orthogonalEdgeStyle;rounded=0;orthogonalLoop=1;jettySize=auto;html=1;entryX=0.499;entryY=0.002;entryDx=0;entryDy=0;entryPerimeter=0;" edge="1" parent="1" source="CMhYdiwJoUcI2MFZcoHu-17" target="CMhYdiwJoUcI2MFZcoHu-24">
          <mxGeometry relative="1" as="geometry" />
        </mxCell>
        <mxCell id="CMhYdiwJoUcI2MFZcoHu-33" style="edgeStyle=orthogonalEdgeStyle;rounded=0;orthogonalLoop=1;jettySize=auto;html=1;entryX=0.478;entryY=-0.006;entryDx=0;entryDy=0;entryPerimeter=0;" edge="1" parent="1" source="CMhYdiwJoUcI2MFZcoHu-16">
          <mxGeometry relative="1" as="geometry">
            <mxPoint x="-329.17999999999984" y="832.5200000000002" as="targetPoint" />
            <Array as="points">
              <mxPoint x="440" y="283" />
              <mxPoint x="-329" y="283" />
            </Array>
          </mxGeometry>
        </mxCell>
        <mxCell id="CMhYdiwJoUcI2MFZcoHu-34" value="&lt;font style=&quot;font-size: 24px;&quot;&gt;Storage&lt;/font&gt;" style="shape=trapezoid;perimeter=trapezoidPerimeter;whiteSpace=wrap;html=1;fixedSize=1;" vertex="1" parent="1">
          <mxGeometry x="-420" y="833" width="190" height="80" as="geometry" />
        </mxCell>
        <mxCell id="CMhYdiwJoUcI2MFZcoHu-36" style="edgeStyle=orthogonalEdgeStyle;rounded=0;orthogonalLoop=1;jettySize=auto;html=1;" edge="1" parent="1" source="CMhYdiwJoUcI2MFZcoHu-17">
          <mxGeometry relative="1" as="geometry">
            <mxPoint x="139.11" y="709.96" as="sourcePoint" />
            <mxPoint x="-360" y="833" as="targetPoint" />
            <Array as="points">
              <mxPoint x="139" y="740" />
              <mxPoint x="560" y="740" />
              <mxPoint x="560" y="230" />
              <mxPoint x="-360" y="230" />
            </Array>
          </mxGeometry>
        </mxCell>
        <mxCell id="CMhYdiwJoUcI2MFZcoHu-37" value="&lt;font style=&quot;font-size: 14px;&quot;&gt;Redis&lt;/font&gt;" style="shape=process;whiteSpace=wrap;html=1;backgroundOutline=1;" vertex="1" parent="1">
          <mxGeometry x="340" y="793" width="120" height="60" as="geometry" />
        </mxCell>
        <mxCell id="CMhYdiwJoUcI2MFZcoHu-38" value="&lt;font style=&quot;font-size: 14px;&quot;&gt;MariaDB&lt;/font&gt;" style="shape=process;whiteSpace=wrap;html=1;backgroundOutline=1;" vertex="1" parent="1">
          <mxGeometry x="500" y="793" width="120" height="60" as="geometry" />
        </mxCell>
        <mxCell id="CMhYdiwJoUcI2MFZcoHu-46" style="edgeStyle=orthogonalEdgeStyle;rounded=0;orthogonalLoop=1;jettySize=auto;html=1;entryX=0.25;entryY=-0.037;entryDx=0;entryDy=0;entryPerimeter=0;" edge="1" parent="1" source="CMhYdiwJoUcI2MFZcoHu-17" target="CMhYdiwJoUcI2MFZcoHu-37">
          <mxGeometry relative="1" as="geometry" />
        </mxCell>
        <mxCell id="CMhYdiwJoUcI2MFZcoHu-48" value="" style="endArrow=classic;html=1;rounded=0;entryX=0.341;entryY=0.008;entryDx=0;entryDy=0;entryPerimeter=0;" edge="1" parent="1">
          <mxGeometry width="50" height="50" relative="1" as="geometry">
            <mxPoint x="370" y="710" as="sourcePoint" />
            <mxPoint x="535" y="793" as="targetPoint" />
            <Array as="points">
              <mxPoint x="534.0799999999999" y="709.52" />
              <mxPoint x="534" y="750" />
            </Array>
          </mxGeometry>
        </mxCell>
        <mxCell id="CMhYdiwJoUcI2MFZcoHu-49" style="edgeStyle=orthogonalEdgeStyle;rounded=0;orthogonalLoop=1;jettySize=auto;html=1;entryX=0.293;entryY=0.983;entryDx=0;entryDy=0;entryPerimeter=0;exitX=0.5;exitY=0.962;exitDx=0;exitDy=0;exitPerimeter=0;" edge="1" parent="1" target="CMhYdiwJoUcI2MFZcoHu-38">
          <mxGeometry relative="1" as="geometry">
            <mxPoint x="-180" y="702.9600000000003" as="sourcePoint" />
            <mxPoint x="535.4000000000001" y="856.6000000000001" as="targetPoint" />
            <Array as="points">
              <mxPoint x="-180" y="911" />
              <mxPoint x="535" y="911" />
            </Array>
          </mxGeometry>
        </mxCell>
        <mxCell id="CMhYdiwJoUcI2MFZcoHu-50" value="" style="endArrow=classic;html=1;rounded=0;entryX=0.42;entryY=0.996;entryDx=0;entryDy=0;entryPerimeter=0;" edge="1" parent="1" target="CMhYdiwJoUcI2MFZcoHu-37">
          <mxGeometry width="50" height="50" relative="1" as="geometry">
            <mxPoint x="390" y="910" as="sourcePoint" />
            <mxPoint x="660" y="780" as="targetPoint" />
          </mxGeometry>
        </mxCell>
        <mxCell id="CMhYdiwJoUcI2MFZcoHu-51" value="&lt;div&gt;Postgresql&lt;/div&gt;" style="shape=process;whiteSpace=wrap;html=1;backgroundOutline=1;" vertex="1" parent="1">
          <mxGeometry x="-480" y="1310" width="120" height="60" as="geometry" />
        </mxCell>
        <mxCell id="CMhYdiwJoUcI2MFZcoHu-52" value="Redis" style="shape=process;whiteSpace=wrap;html=1;backgroundOutline=1;" vertex="1" parent="1">
          <mxGeometry x="-480" y="1410" width="120" height="60" as="geometry" />
        </mxCell>
        <mxCell id="CMhYdiwJoUcI2MFZcoHu-54" style="edgeStyle=orthogonalEdgeStyle;rounded=0;orthogonalLoop=1;jettySize=auto;html=1;entryX=-0.015;entryY=0.475;entryDx=0;entryDy=0;entryPerimeter=0;" edge="1" parent="1" source="CMhYdiwJoUcI2MFZcoHu-7" target="CMhYdiwJoUcI2MFZcoHu-52">
          <mxGeometry relative="1" as="geometry">
            <Array as="points">
              <mxPoint x="-610" y="1213" />
              <mxPoint x="-610" y="1439" />
            </Array>
          </mxGeometry>
        </mxCell>
        <mxCell id="CMhYdiwJoUcI2MFZcoHu-55" style="edgeStyle=orthogonalEdgeStyle;rounded=0;orthogonalLoop=1;jettySize=auto;html=1;entryX=0.996;entryY=0.496;entryDx=0;entryDy=0;entryPerimeter=0;" edge="1" parent="1" source="CMhYdiwJoUcI2MFZcoHu-8" target="CMhYdiwJoUcI2MFZcoHu-51">
          <mxGeometry relative="1" as="geometry">
            <Array as="points">
              <mxPoint x="15" y="1340" />
            </Array>
          </mxGeometry>
        </mxCell>
        <mxCell id="CMhYdiwJoUcI2MFZcoHu-56" style="edgeStyle=orthogonalEdgeStyle;rounded=0;orthogonalLoop=1;jettySize=auto;html=1;entryX=1.004;entryY=0.39;entryDx=0;entryDy=0;entryPerimeter=0;" edge="1" parent="1" source="CMhYdiwJoUcI2MFZcoHu-8" target="CMhYdiwJoUcI2MFZcoHu-52">
          <mxGeometry relative="1" as="geometry">
            <Array as="points">
              <mxPoint x="15" y="1433" />
              <mxPoint x="-203" y="1433" />
            </Array>
          </mxGeometry>
        </mxCell>
        <mxCell id="CMhYdiwJoUcI2MFZcoHu-58" style="edgeStyle=orthogonalEdgeStyle;rounded=0;orthogonalLoop=1;jettySize=auto;html=1;" edge="1" parent="1" source="CMhYdiwJoUcI2MFZcoHu-9">
          <mxGeometry relative="1" as="geometry">
            <mxPoint x="-360" y="1340" as="targetPoint" />
            <Array as="points">
              <mxPoint x="245" y="1340" />
            </Array>
          </mxGeometry>
        </mxCell>
        <mxCell id="CMhYdiwJoUcI2MFZcoHu-59" style="edgeStyle=orthogonalEdgeStyle;rounded=0;orthogonalLoop=1;jettySize=auto;html=1;entryX=1.001;entryY=0.384;entryDx=0;entryDy=0;entryPerimeter=0;" edge="1" parent="1" source="CMhYdiwJoUcI2MFZcoHu-9" target="CMhYdiwJoUcI2MFZcoHu-52">
          <mxGeometry relative="1" as="geometry">
            <Array as="points">
              <mxPoint x="245" y="1433" />
            </Array>
          </mxGeometry>
        </mxCell>
      </root>
    </mxGraphModel>
  </diagram>
</mxfile>
